<?xml version="1.0" standalone="no"?>
<!DOCTYPE svg PUBLIC "-//W3C//DTD SVG 20010904//EN"
 "http://www.w3.org/TR/2001/REC-SVG-20010904/DTD/svg10.dtd">
<svg version="1.0" xmlns="http://www.w3.org/2000/svg"
 width="1600.000000pt" height="1600.000000pt" viewBox="0 0 1600.000000 1600.000000"
 preserveAspectRatio="xMidYMid meet">
<metadata>
Created by potrace 1.14, written by Peter Selinger 2001-2017
</metadata>
<g transform="translate(0.000000,1600.000000) scale(0.100000,-0.100000)"
fill="#000000" stroke="none">
<path d="M5030 15893 c-14 -2 -34 -8 -45 -13 -11 -5 -36 -16 -56 -25 -65 -29
-119 -105 -154 -218 -22 -69 -16 -163 13 -222 11 -22 26 -58 33 -79 16 -44 81
-101 161 -142 40 -20 58 -24 106 -19 80 7 84 8 125 33 21 12 42 22 46 22 16 0
89 81 110 120 11 21 27 75 36 118 16 76 15 80 -5 131 -56 142 -109 201 -245
272 -54 28 -71 31 -125 22z"/>
<path d="M7590 15520 c-36 -4 -95 -19 -133 -34 -37 -14 -77 -26 -89 -26 -34 0
-190 -180 -245 -285 -12 -22 -32 -74 -44 -115 -24 -81 -33 -94 -60 -79 -11 5
-106 5 -246 0 -125 -6 -349 -12 -498 -15 -148 -4 -402 -9 -563 -12 -269 -6
-294 -5 -312 11 -11 10 -26 15 -36 11 -9 -3 -22 -2 -29 4 -10 9 -17 4 -27 -16
-11 -24 -348 -288 -519 -407 -25 -18 -118 -86 -205 -151 -87 -66 -202 -151
-254 -190 -52 -38 -97 -72 -100 -76 -3 -3 -27 -22 -55 -40 -27 -19 -60 -43
-73 -55 -25 -21 -175 -128 -283 -200 -36 -24 -71 -51 -78 -59 -8 -9 -17 -16
-22 -16 -5 0 -17 -8 -27 -17 -10 -10 -33 -29 -52 -43 -18 -14 -45 -34 -59 -46
-14 -11 -64 -47 -110 -78 -47 -32 -130 -91 -185 -132 -56 -41 -139 -102 -186
-136 -47 -35 -89 -68 -95 -74 -9 -10 -77 -60 -221 -162 -26 -18 -76 -56 -112
-85 -59 -46 -172 -128 -242 -174 -14 -10 -52 -38 -85 -64 -33 -25 -71 -52 -85
-59 -14 -7 -47 -32 -75 -55 -27 -23 -68 -54 -90 -67 -22 -14 -64 -46 -94 -72
-35 -29 -64 -46 -81 -46 -38 0 -74 -51 -65 -92 5 -21 0 -48 -18 -92 -30 -75
-57 -162 -57 -187 0 -10 -4 -20 -9 -23 -5 -3 -14 -35 -21 -71 -7 -36 -16 -68
-21 -71 -5 -3 -9 -17 -9 -30 0 -14 -11 -53 -24 -87 -21 -54 -112 -334 -122
-377 -7 -31 -115 -388 -139 -460 -72 -220 -95 -290 -110 -345 -26 -95 -74
-251 -111 -360 -18 -55 -43 -136 -55 -180 -11 -43 -29 -98 -40 -121 -10 -24
-19 -50 -19 -58 0 -8 -13 -52 -29 -98 -15 -46 -40 -126 -55 -178 -15 -52 -31
-106 -36 -120 -5 -14 -23 -72 -40 -130 -18 -58 -54 -170 -80 -250 -27 -80 -62
-194 -79 -255 -17 -60 -35 -126 -41 -145 -25 -87 -65 -213 -97 -305 -48 -136
-48 -136 -24 -188 12 -25 22 -54 24 -64 1 -10 5 -22 8 -28 9 -15 100 -292 115
-350 31 -118 136 -476 177 -602 25 -76 64 -199 86 -273 23 -74 48 -153 55
-175 8 -22 22 -67 31 -100 10 -33 42 -134 72 -225 30 -91 59 -187 65 -215 11
-56 61 -216 88 -285 10 -25 21 -63 25 -85 4 -22 13 -49 19 -60 7 -11 29 -78
50 -150 45 -155 170 -564 255 -832 33 -106 67 -221 76 -255 9 -35 20 -74 26
-88 5 -14 12 -39 15 -55 2 -17 12 -45 20 -63 9 -19 13 -44 10 -57 -11 -42 13
-74 66 -90 41 -12 98 -48 146 -92 7 -7 16 -13 20 -13 4 0 27 -18 52 -40 25
-23 80 -65 122 -95 42 -30 101 -75 132 -99 30 -25 86 -66 123 -92 37 -26 84
-60 103 -76 19 -17 87 -69 151 -117 64 -47 154 -115 201 -151 47 -36 96 -72
109 -80 12 -8 36 -26 53 -40 17 -14 41 -32 52 -40 12 -8 66 -49 120 -90 55
-42 194 -147 309 -233 116 -87 218 -164 228 -173 53 -43 189 -144 195 -144 4
0 30 -19 57 -43 28 -23 64 -51 80 -61 17 -10 81 -58 143 -105 62 -47 135 -102
162 -122 27 -20 61 -46 77 -58 15 -12 60 -45 98 -74 39 -29 95 -71 125 -94 30
-23 82 -63 115 -88 33 -25 107 -82 163 -128 57 -45 136 -104 175 -132 l71 -50
-3 -65 c-1 -36 -4 -81 -7 -100 -12 -78 -78 -342 -110 -445 -48 -150 -62 -217
-79 -380 -21 -205 -13 -379 27 -562 11 -51 12 -53 45 -53 29 0 33 3 29 22 -60
284 -52 618 20 865 77 261 127 474 139 589 4 38 14 84 21 103 8 18 11 38 8 43
-4 5 -1 21 7 34 10 19 10 27 1 36 -8 8 -12 50 -12 118 0 96 -2 109 -21 126
-20 18 -21 18 -35 0 -16 -23 -21 -20 -109 69 -38 38 -96 117 -156 215 -114
183 -157 265 -200 380 -17 47 -42 114 -55 150 -38 102 -163 544 -180 635 -2
11 -8 38 -13 60 -12 45 -48 204 -80 345 -33 150 -69 337 -81 430 -6 47 -29
175 -52 285 -22 110 -44 227 -48 260 -5 33 -11 71 -14 83 -3 13 -10 69 -16
125 -6 56 -15 128 -21 159 -5 31 -14 103 -19 160 -5 57 -18 193 -28 303 -16
164 -18 271 -16 595 3 413 10 507 50 680 25 108 38 153 104 370 100 332 107
359 92 409 -7 22 -15 66 -18 98 -2 32 -9 99 -14 148 -44 434 -31 841 35 1155
9 41 25 126 36 188 24 136 62 262 95 312 25 38 25 59 -3 92 -25 29 -53 157
-53 242 1 240 87 682 146 747 8 9 16 27 16 40 1 13 5 29 9 34 4 6 8 33 7 60
-1 52 6 129 23 250 5 39 11 93 13 120 3 28 10 91 16 140 11 90 19 186 39 520
21 330 92 669 182 863 16 35 29 67 29 72 0 5 6 13 13 17 6 4 21 24 31 43 26
48 44 67 94 102 70 48 70 14 0 -37 -26 -19 -54 -54 -75 -95 -19 -36 -41 -72
-49 -81 -9 -9 -17 -31 -19 -47 -2 -17 -12 -46 -22 -64 -35 -66 -44 -105 -48
-203 -4 -116 2 -177 20 -202 12 -16 26 -17 107 -15 51 2 104 5 118 7 14 2 41
4 61 4 44 1 56 22 32 58 -17 25 -17 25 -134 21 -112 -4 -118 -3 -123 16 -10
37 -6 130 8 181 13 50 18 64 49 120 9 17 21 41 28 55 32 72 42 89 77 132 71
89 123 115 238 120 54 2 66 -1 98 -26 88 -67 118 -169 105 -366 -12 -199 -16
-208 -84 -208 -52 0 -75 -11 -75 -35 0 -42 35 -60 111 -55 44 2 74 9 84 19 31
30 52 403 29 519 -12 67 -99 202 -144 225 -43 22 -49 39 -11 30 54 -12 191
-95 191 -116 0 -5 18 -38 40 -75 l41 -66 -11 -141 c-6 -78 -12 -164 -14 -192
-3 -27 -7 -86 -11 -130 -3 -44 -8 -100 -10 -125 -8 -81 -26 -304 -30 -375 -2
-38 -9 -133 -16 -210 -6 -77 -13 -201 -15 -275 -2 -107 -10 -170 -38 -305 -20
-93 -37 -189 -37 -212 -2 -45 -7 -51 -27 -31 -16 16 -42 -8 -42 -41 0 -14 13
-64 29 -111 30 -91 48 -205 67 -438 4 -51 1 -87 -9 -120 -8 -26 -27 -87 -42
-137 -15 -49 -34 -102 -41 -117 -8 -14 -14 -32 -14 -40 0 -8 -16 -53 -35 -101
-28 -69 -33 -92 -25 -107 16 -30 25 -25 59 35 17 30 34 55 36 55 6 0 0 -63
-20 -200 -8 -52 -17 -151 -21 -220 -3 -69 -7 -145 -10 -170 -17 -208 -25 -449
-24 -750 1 -195 -3 -383 -8 -417 -7 -44 -30 -103 -81 -205 -99 -201 -126 -298
-81 -298 11 0 20 6 20 13 0 16 115 244 135 267 7 8 18 32 24 52 7 21 17 40 22
43 5 4 9 14 9 24 0 10 11 35 26 56 25 37 25 39 16 139 -9 97 -8 798 1 881 3
22 10 144 17 270 7 134 20 272 31 330 10 55 19 115 19 134 0 18 4 61 10 95 5
33 19 116 30 183 11 67 20 136 20 153 0 35 2 36 37 13 24 -16 26 -16 38 0 10
15 8 29 -16 88 -52 127 -69 217 -86 434 -5 68 7 221 27 335 5 30 14 83 20 118
6 35 17 83 26 108 16 48 45 200 48 249 1 25 -3 30 -20 28 -18 -2 -20 3 -17 35
6 76 22 292 33 452 6 91 18 224 26 295 29 260 45 558 49 910 3 198 9 401 15
450 26 238 39 303 84 440 28 84 93 215 106 215 6 0 10 5 10 11 0 46 232 199
301 199 14 0 30 5 37 12 7 7 41 11 89 10 130 -3 170 -11 216 -46 23 -17 61
-44 85 -60 23 -16 42 -34 42 -40 0 -6 11 -28 25 -48 14 -20 25 -43 25 -50 0
-7 11 -34 25 -60 36 -68 57 -178 51 -263 -3 -38 -8 -133 -11 -210 -3 -77 -8
-169 -11 -205 -10 -125 -16 -530 -15 -1035 0 -165 -2 -318 -4 -340 -3 -32 -14
-522 -15 -667 0 -36 -1 -37 -24 -26 -56 25 -81 -29 -42 -89 49 -75 130 -361
141 -498 6 -77 -9 -293 -24 -340 -5 -17 -19 -64 -32 -105 -12 -41 -30 -92 -40
-112 -26 -50 -37 -158 -18 -158 8 1 23 15 34 32 31 48 42 46 39 -9 -1 -26 -5
-122 -8 -212 -4 -90 -9 -167 -12 -172 -9 -15 -4 -437 6 -529 8 -77 19 -302 23
-455 3 -168 -7 -396 -20 -450 -29 -120 -121 -379 -173 -484 -38 -77 -34 -120
12 -132 32 -8 43 2 53 49 6 31 40 122 70 187 7 17 21 57 31 90 9 33 22 69 29
80 7 11 20 56 29 100 10 44 22 92 27 106 6 14 11 57 13 95 4 108 -22 832 -31
847 -11 18 -13 474 -3 538 5 38 13 131 15 206 3 76 10 170 15 208 5 39 11 104
15 145 5 69 30 262 41 319 l5 24 34 -33 c34 -33 65 -36 65 -6 0 7 -17 49 -39
92 -52 108 -107 248 -125 319 -32 132 -27 443 9 569 8 28 21 85 30 126 9 41
23 97 32 123 14 45 14 50 -3 68 -29 32 -58 21 -68 -28 -15 -65 -25 -51 -20 25
2 37 6 355 8 707 3 352 5 646 6 653 0 8 9 12 21 10 37 -5 45 23 29 94 -17 71
-17 129 -8 833 4 259 11 508 17 555 21 184 24 200 32 200 5 0 9 11 9 24 0 33
32 106 77 174 60 91 137 182 155 182 9 0 18 5 20 11 4 13 103 49 134 49 12 0
24 5 26 10 2 6 30 10 63 11 33 0 71 1 85 1 59 1 75 -1 143 -22 80 -24 78 -24
125 -49 52 -27 150 -148 167 -205 8 -27 15 -60 15 -73 0 -14 5 -33 10 -44 18
-33 40 -281 46 -514 1 -71 6 -222 11 -335 16 -415 6 -650 -37 -787 -21 -67
-26 -128 -12 -137 17 -10 30 10 73 109 12 27 14 8 21 -165 4 -107 12 -229 17
-270 6 -41 13 -176 16 -300 3 -124 9 -277 12 -341 6 -124 1 -169 -21 -169 -16
0 -46 -32 -46 -48 0 -7 12 -26 26 -42 30 -34 47 -59 69 -110 9 -19 19 -42 24
-51 24 -42 43 -186 38 -276 -11 -163 -29 -316 -48 -408 -11 -49 -21 -99 -23
-110 -14 -83 -47 -218 -56 -230 -5 -5 -11 -40 -15 -77 -6 -58 -5 -69 9 -74 27
-10 63 32 69 79 3 23 9 58 14 77 l9 35 12 -50 c17 -77 36 -168 38 -190 1 -11
12 -81 23 -155 17 -108 21 -176 20 -350 -1 -215 -9 -1357 -10 -1395 0 -11 3
-58 6 -105 10 -129 7 -364 -5 -394 -5 -15 -26 -93 -45 -173 -37 -151 -47 -235
-30 -241 11 -4 73 144 110 265 14 45 30 85 35 88 6 3 10 18 11 33 l1 27 8 -25
c5 -14 16 -52 26 -85 9 -33 33 -91 52 -130 19 -38 37 -76 41 -83 3 -7 18 -21
33 -30 21 -12 30 -13 41 -4 12 10 7 27 -33 109 -86 178 -127 342 -141 563 -5
85 -14 175 -20 200 -9 44 -12 501 -4 670 3 47 7 195 9 330 3 135 8 274 10 310
3 36 8 106 11 155 5 85 35 356 41 363 1 2 20 -16 41 -39 40 -43 63 -46 63 -8
0 10 5 28 12 39 11 16 9 23 -10 40 -29 27 -75 120 -96 195 -9 33 -24 80 -32
105 -20 63 -35 176 -41 307 -5 113 4 201 32 298 34 116 76 306 73 327 -2 15
-11 24 -25 26 -18 3 -24 -4 -34 -40 l-12 -43 -8 40 c-9 48 -4 332 16 1010 5
142 3 268 -4 355 -23 266 -31 397 -31 552 -1 245 22 347 126 563 37 78 76 143
96 161 47 45 163 102 231 115 86 15 219 -2 300 -40 98 -46 219 -170 265 -272
79 -173 85 -187 121 -304 34 -108 44 -520 18 -725 -13 -106 -12 -183 3 -238 5
-21 12 -75 15 -122 4 -47 10 -123 15 -170 5 -47 11 -125 15 -175 3 -49 17
-178 31 -285 13 -107 24 -226 24 -264 l0 -70 -21 23 c-32 34 -63 25 -67 -19
-2 -30 4 -43 38 -78 22 -24 40 -49 40 -57 0 -7 11 -26 23 -42 13 -15 43 -74
65 -130 43 -103 55 -172 66 -368 7 -124 -23 -305 -71 -430 -39 -102 -42 -160
-8 -160 14 0 26 13 40 42 11 23 23 42 26 43 6 0 15 -32 50 -189 11 -50 54
-358 70 -501 5 -52 14 -111 19 -130 6 -19 12 -71 16 -115 3 -44 9 -100 14
-125 20 -100 28 -485 21 -1017 -2 -144 4 -183 25 -183 8 0 14 5 14 11 0 45 94
-142 110 -218 28 -137 42 -214 50 -273 5 -36 16 -95 25 -132 26 -115 29 -138
90 -718 9 -80 22 -222 29 -316 7 -94 16 -176 20 -182 6 -10 12 -94 20 -287 3
-49 9 -126 15 -170 5 -44 13 -120 16 -170 4 -49 8 -92 10 -95 2 -3 6 -34 9
-70 12 -124 67 -346 106 -425 5 -11 21 -50 34 -86 71 -191 207 -369 283 -369
33 0 40 21 14 39 -81 56 -180 221 -276 457 -48 120 -109 394 -84 378 5 -3 9
-11 9 -19 0 -16 195 -225 224 -241 12 -6 48 -28 80 -49 35 -22 120 -58 205
-88 141 -47 151 -49 275 -52 70 -2 130 -6 133 -9 3 -3 -6 -10 -20 -15 -14 -5
-31 -18 -38 -28 -8 -10 -30 -30 -49 -44 -19 -15 -55 -45 -80 -68 -25 -22 -57
-52 -72 -65 -33 -29 -35 -49 -8 -76 26 -26 31 -26 71 13 19 17 48 43 65 57 16
14 33 33 37 43 7 18 273 197 293 197 7 0 23 13 36 29 13 15 46 41 73 57 28 15
64 38 81 51 17 13 34 23 38 23 4 0 23 16 43 36 33 34 235 199 309 254 19 14
41 35 49 46 22 33 350 279 545 411 47 31 89 63 93 70 17 28 26 11 25 -49 -1
-48 3 -64 17 -75 31 -22 52 7 60 85 4 36 11 77 17 92 5 14 11 39 13 55 5 48
66 153 220 375 92 133 407 440 450 440 5 0 22 11 39 24 56 42 229 126 260 126
14 0 31 9 39 21 8 11 41 29 73 39 33 10 75 25 95 34 43 18 234 57 269 55 14
-1 43 3 65 9 86 22 238 34 315 23 40 -5 77 -8 80 -6 16 10 210 -71 210 -87 0
-4 6 -8 13 -8 7 0 32 -21 55 -46 35 -39 40 -51 35 -78 -3 -17 -12 -38 -20 -46
-12 -13 -15 -13 -25 5 -21 38 -84 90 -124 102 -37 11 -44 9 -130 -31 -80 -38
-102 -55 -186 -142 -53 -54 -112 -117 -131 -139 -20 -22 -60 -69 -91 -104 -31
-35 -56 -70 -56 -77 0 -8 -6 -14 -12 -14 -7 0 -23 -18 -36 -41 -13 -22 -39
-58 -58 -79 -37 -41 -45 -88 -20 -110 21 -16 57 -9 70 15 23 40 101 152 155
220 67 86 290 325 302 325 5 0 31 16 58 35 71 51 99 54 159 14 28 -18 56 -43
63 -56 12 -23 8 -29 -79 -111 -51 -48 -92 -91 -92 -95 0 -4 -17 -30 -37 -57
-21 -27 -49 -65 -63 -85 -14 -20 -35 -49 -47 -64 -12 -15 -52 -68 -90 -117
-90 -121 -197 -253 -203 -254 -3 0 -25 18 -50 40 -65 58 -158 120 -179 120
-20 0 -31 -19 -31 -55 0 -25 13 -39 50 -50 29 -9 58 -30 117 -87 l43 -40 -38
-45 c-20 -25 -60 -71 -89 -102 -29 -31 -65 -75 -80 -98 -15 -23 -63 -78 -105
-122 -43 -44 -78 -88 -78 -98 0 -10 -9 -31 -20 -48 -12 -16 -30 -51 -42 -77
-11 -27 -23 -48 -27 -48 -3 0 -30 31 -59 70 -88 115 -138 145 -162 99 -10 -18
-4 -28 58 -89 66 -65 112 -136 112 -174 0 -24 -26 -64 -82 -127 -13 -15 -30
-39 -39 -55 -20 -38 -44 -34 -92 16 -43 45 -53 48 -62 20 -10 -30 2 -56 40
-85 19 -14 35 -32 35 -40 0 -8 -17 -27 -37 -42 -21 -15 -45 -36 -55 -45 -38
-37 -67 -15 -104 78 -13 31 -27 79 -30 106 -9 67 -60 103 -83 60 -10 -19 19
-163 38 -186 5 -6 12 -22 16 -36 4 -14 21 -44 36 -66 l28 -42 -102 -60 c-56
-33 -143 -80 -194 -105 -114 -56 -165 -94 -158 -117 4 -12 -21 -39 -90 -98
-52 -45 -97 -82 -100 -82 -3 0 -84 -78 -181 -172 -96 -95 -178 -173 -183 -173
-5 0 -19 -12 -31 -27 -12 -16 -28 -28 -36 -28 -8 0 -14 -6 -14 -13 0 -8 -36
-47 -81 -88 -45 -41 -102 -96 -128 -123 -25 -26 -73 -74 -106 -105 -32 -31
-71 -69 -85 -85 -14 -15 -40 -44 -57 -64 -18 -19 -33 -41 -33 -48 0 -8 -4 -14
-9 -14 -5 0 -11 -8 -15 -17 -19 -57 -137 -231 -220 -324 -23 -26 -60 -73 -84
-105 -81 -109 -154 -192 -386 -438 -377 -398 -707 -708 -805 -757 -14 -7 -62
-40 -106 -72 -68 -49 -126 -84 -260 -154 -33 -17 -216 -104 -270 -128 -111
-49 -125 -54 -138 -49 -8 3 -23 -3 -34 -13 -18 -15 -22 -33 -27 -118 -3 -55
-10 -125 -16 -155 -9 -52 -7 -535 3 -625 6 -51 24 -190 36 -275 10 -73 68
-271 100 -340 11 -25 21 -51 21 -58 0 -8 15 -37 33 -65 19 -29 44 -69 56 -89
22 -37 24 -38 82 -38 58 0 81 16 39 27 -28 7 -126 157 -157 239 -79 211 -103
314 -135 584 -17 139 -16 614 1 728 l14 94 71 32 c39 18 87 39 106 46 19 8 86
40 148 72 63 32 124 58 136 58 13 0 40 12 61 26 21 14 59 36 84 48 82 41 95
50 151 104 30 30 93 83 140 120 47 36 96 77 110 91 27 27 108 100 151 137 13
11 103 103 199 205 96 101 213 222 260 270 47 47 114 118 150 158 52 57 69 70
87 66 25 -6 71 22 136 84 24 23 57 52 74 64 60 43 189 145 244 193 31 27 89
74 129 104 40 30 77 60 84 65 6 6 38 30 71 54 33 25 62 48 65 51 3 4 26 22 51
41 25 19 140 106 255 194 115 87 232 171 259 185 37 19 51 33 53 51 6 60 185
644 203 663 5 6 9 18 9 28 0 10 17 29 38 42 20 14 52 41 71 60 19 20 39 36 44
36 6 0 40 15 76 34 134 70 264 156 332 220 38 36 74 66 81 66 7 0 24 12 38 26
13 14 33 30 45 34 11 4 25 18 31 31 6 13 55 114 109 224 100 203 166 311 254
413 86 101 156 186 201 247 49 66 147 182 219 260 25 28 76 86 111 129 36 44
89 106 118 138 28 32 52 62 52 68 0 5 8 17 19 27 10 10 45 55 78 100 60 80 73
98 173 220 44 54 50 68 50 108 0 25 -8 72 -17 105 -15 50 -22 60 -53 74 -19 9
-49 29 -67 46 -18 16 -37 30 -42 30 -6 0 -28 9 -48 20 -21 11 -43 20 -50 20
-6 0 -19 7 -27 16 -12 11 -41 17 -99 20 -45 2 -116 6 -158 9 -55 4 -117 -1
-225 -19 -244 -41 -328 -57 -339 -66 -5 -4 -26 -11 -45 -15 -19 -3 -50 -13
-68 -22 -19 -8 -35 -13 -37 -11 -5 5 17 106 38 173 66 217 90 290 117 355 60
144 61 153 17 169 -20 8 -34 42 -96 233 -99 301 -105 319 -137 428 -15 52 -42
139 -60 192 -18 53 -62 197 -99 320 -76 258 -93 313 -140 463 -20 61 -38 127
-41 148 -4 20 -11 40 -15 43 -5 3 -9 16 -9 29 0 13 -4 26 -9 30 -5 3 -13 20
-16 38 -4 17 -23 79 -41 136 -19 58 -34 113 -34 122 0 10 -4 21 -10 24 -5 3
-10 15 -10 26 0 19 -6 41 -70 244 -18 55 -33 105 -34 110 -1 6 -17 55 -35 110
-18 55 -44 143 -58 195 -13 52 -35 122 -48 155 -13 33 -33 96 -45 140 -12 44
-26 91 -31 105 -7 20 -49 167 -99 345 -5 17 -16 50 -24 75 -8 25 -27 90 -41
145 -36 135 -40 145 -67 145 -13 0 -41 16 -63 35 -22 20 -112 90 -200 156 -88
66 -172 130 -186 142 -14 12 -42 36 -63 52 -21 17 -48 38 -60 49 -11 10 -66
54 -121 97 -117 91 -411 323 -440 347 -11 10 -42 35 -70 57 -27 22 -68 55 -91
75 -22 19 -64 53 -94 75 -29 22 -74 58 -100 80 -83 71 -124 104 -156 127 -32
24 -35 27 -99 81 -22 18 -58 47 -80 63 -22 16 -43 34 -48 41 -4 6 -40 36 -80
67 -39 31 -97 76 -127 101 -30 24 -71 57 -90 72 -19 15 -91 73 -160 128 -69
56 -154 123 -190 150 -36 27 -83 65 -106 84 -43 39 -57 50 -239 197 -66 53
-136 110 -156 128 -20 17 -45 38 -55 46 -49 38 -120 96 -133 108 -8 8 -39 32
-70 55 -31 23 -74 56 -95 74 -31 26 -46 32 -70 28 -90 -14 -1340 -39 -1399
-28 -20 4 -25 14 -36 76 -7 40 -22 93 -32 119 -25 64 -101 160 -163 206 -116
87 -296 131 -456 112z m2118 -629 c17 -20 45 -42 127 -98 22 -15 66 -49 97
-75 31 -26 59 -48 63 -48 6 0 131 -99 171 -135 32 -29 115 -99 146 -123 53
-41 197 -157 308 -247 53 -44 107 -87 120 -95 12 -8 55 -41 94 -73 39 -32 89
-73 110 -90 22 -18 52 -43 68 -56 16 -13 42 -33 58 -45 26 -19 132 -99 155
-118 6 -4 35 -28 65 -52 68 -55 394 -315 471 -376 143 -113 256 -205 277 -227
13 -13 35 -31 50 -41 15 -9 108 -81 207 -160 166 -132 238 -192 368 -301 27
-23 51 -41 55 -41 4 0 25 -17 48 -38 23 -20 61 -53 85 -72 24 -19 58 -49 74
-66 17 -17 39 -34 50 -38 11 -3 28 -19 37 -36 9 -16 24 -30 32 -30 8 0 17 -8
20 -17 3 -10 18 -65 35 -123 16 -58 50 -170 76 -250 71 -221 95 -310 83 -310
-7 0 -5 -7 4 -17 16 -19 28 -50 48 -123 7 -25 21 -70 31 -100 15 -46 46 -149
133 -440 8 -25 28 -90 44 -145 17 -55 70 -228 117 -385 47 -157 92 -305 101
-330 27 -79 125 -392 151 -485 14 -49 35 -121 48 -160 13 -38 28 -90 35 -115
7 -25 18 -60 26 -78 8 -18 14 -38 14 -45 0 -14 46 -169 62 -207 6 -14 21 -68
34 -120 13 -52 33 -117 43 -145 55 -145 90 -265 98 -335 3 -25 10 -48 16 -52
11 -6 -36 -173 -54 -192 -5 -6 -9 -19 -9 -30 0 -28 -26 -113 -78 -256 -25 -69
-45 -140 -45 -157 1 -18 -2 -33 -7 -33 -4 0 -23 -11 -43 -24 -19 -13 -45 -27
-57 -31 -30 -9 -126 -71 -220 -139 -74 -54 -255 -225 -295 -278 -11 -14 -46
-57 -78 -95 -56 -66 -156 -206 -187 -261 -9 -15 -36 -63 -60 -107 -25 -44 -48
-87 -51 -95 -4 -8 -29 -23 -55 -33 -78 -30 -96 -40 -104 -62 -11 -27 -44 -56
-110 -96 -55 -33 -119 -81 -175 -131 -34 -29 -118 -94 -214 -166 -35 -26 -80
-63 -100 -83 -20 -20 -58 -54 -86 -75 -54 -42 -98 -79 -126 -105 -30 -30 -128
-99 -139 -99 -5 0 -10 -4 -10 -9 0 -12 -127 -96 -180 -119 -153 -64 -447 -71
-585 -12 -11 4 -51 20 -90 35 -65 24 -170 81 -205 111 -17 15 -145 142 -166
165 -26 29 -84 150 -84 176 0 16 -7 27 -19 30 -22 6 -28 26 -36 133 -17 236
-39 481 -60 670 -13 118 -28 267 -34 330 -6 63 -15 153 -21 200 -5 47 -14 144
-20 215 -6 72 -18 160 -25 197 -8 37 -21 115 -30 175 -22 155 -63 348 -88 418
-12 33 -41 94 -66 135 l-44 75 -3 350 c-2 304 -14 600 -28 715 -2 19 -7 76
-11 125 -4 50 -13 124 -20 165 -8 41 -23 145 -34 230 -34 258 -41 307 -83 516
l-39 202 15 82 c20 105 20 274 0 447 -15 132 -37 212 -80 294 -18 36 -38 166
-49 316 -3 48 -8 95 -10 103 -2 8 -7 42 -9 75 -3 33 -12 116 -21 185 -46 390
-56 641 -43 1130 6 244 3 274 -41 465 -26 111 -116 326 -173 410 -76 113 -198
224 -271 247 -69 21 -176 38 -244 38 -69 0 -179 -27 -210 -52 -7 -6 -19 -8
-27 -5 -8 3 -24 -5 -36 -18 -12 -13 -35 -29 -51 -35 -16 -7 -29 -18 -29 -25 0
-6 -24 -45 -52 -86 -29 -41 -54 -83 -56 -94 -2 -11 -9 -33 -17 -50 -98 -218
-119 -337 -110 -620 7 -227 11 -291 26 -454 8 -86 9 -215 3 -415 -10 -361 -12
-454 -14 -786 -2 -276 2 -372 21 -428 7 -21 7 -37 1 -45 -5 -7 -13 -45 -17
-84 -12 -121 -20 -82 -17 78 4 143 -8 260 -28 297 -5 10 -21 44 -36 77 -24 55
-27 73 -30 225 -5 166 -21 586 -29 715 -19 324 -23 434 -24 599 -1 104 -6 208
-11 231 -5 23 -9 128 -9 234 0 105 -2 195 -4 199 -3 4 -8 102 -12 217 -7 222
-10 286 -21 428 l-7 87 29 1 c16 0 45 2 64 4 19 2 233 6 475 10 241 3 440 7
441 8 2 1 95 1 209 0 193 -2 207 -3 223 -22z m-2770 -30 c35 -4 65 -4 68 0 10
17 36 -4 30 -25 -10 -34 -20 -267 -20 -463 -1 -175 -6 -218 -20 -153 -7 40
-64 126 -112 172 -55 52 -148 102 -229 122 -54 14 -90 16 -174 10 -60 -4 -112
-12 -121 -19 -8 -7 -32 -18 -52 -25 -21 -6 -38 -16 -38 -21 0 -5 -5 -9 -11 -9
-22 0 -135 -83 -154 -113 -11 -18 -29 -36 -41 -41 -32 -14 -120 -194 -144
-296 -8 -30 -17 -60 -22 -66 -12 -16 -51 -280 -63 -428 -3 -38 -8 -72 -10 -76
-3 -4 -5 -119 -5 -256 -1 -248 -1 -249 -20 -224 -11 14 -20 28 -20 32 0 9
-137 98 -151 98 -6 0 -25 7 -42 16 -18 9 -39 20 -48 25 -9 4 -66 7 -125 5 -92
-3 -119 -7 -172 -30 -73 -31 -143 -74 -156 -96 -6 -8 -26 -31 -46 -50 -81 -78
-203 -416 -246 -677 -8 -51 -16 -98 -19 -105 -7 -23 -26 -271 -30 -401 -3 -70
-7 -132 -10 -138 -4 -5 -11 -71 -16 -147 -11 -163 -16 -209 -24 -222 -3 -5
-10 -65 -15 -132 -16 -210 -38 -348 -65 -403 -29 -59 -74 -246 -106 -435 -19
-109 -23 -174 -24 -335 0 -128 4 -211 12 -230 24 -63 26 -71 24 -107 -2 -21
-15 -75 -31 -120 -15 -46 -31 -108 -35 -138 -3 -30 -12 -80 -20 -110 -16 -67
-37 -199 -42 -260 -1 -25 -11 -83 -20 -130 -24 -122 -24 -652 1 -905 10 -99
20 -211 23 -250 6 -76 -8 -170 -32 -218 -8 -16 -15 -40 -15 -51 0 -12 -11 -43
-23 -71 -34 -72 -93 -315 -121 -500 -2 -11 -11 -58 -21 -105 -12 -56 -19 -145
-21 -260 -2 -96 -5 -188 -5 -205 -4 -126 12 -647 20 -669 6 -15 13 -65 16
-112 3 -47 8 -104 11 -127 3 -23 7 -67 9 -97 3 -68 31 -267 47 -335 6 -27 12
-59 14 -70 1 -11 7 -67 14 -125 6 -58 15 -116 20 -130 5 -14 12 -43 15 -65 3
-23 21 -126 40 -230 19 -105 46 -255 60 -335 14 -80 30 -156 35 -170 10 -30
76 -308 86 -365 9 -55 100 -419 120 -480 9 -27 29 -86 44 -130 16 -44 36 -105
45 -135 10 -30 21 -59 25 -65 3 -5 17 -39 30 -75 29 -83 103 -231 147 -293 18
-26 33 -50 33 -54 0 -6 48 -82 60 -93 3 -3 21 -27 40 -55 19 -27 45 -61 57
-75 73 -81 119 -128 130 -131 15 -5 29 -59 15 -59 -6 0 -42 24 -81 53 -38 28
-99 72 -135 97 -36 25 -65 48 -66 52 0 4 -15 15 -32 24 -27 14 -130 86 -148
104 -3 3 -25 19 -50 35 -25 16 -47 32 -50 35 -9 9 -191 143 -278 206 -135 96
-142 102 -197 149 -29 25 -56 45 -60 45 -10 0 -134 90 -195 141 -30 25 -93 73
-140 105 -47 32 -108 77 -136 99 -65 52 -179 135 -216 157 -16 10 -63 46 -106
81 -42 35 -93 74 -112 87 -19 13 -68 49 -109 79 -40 31 -83 63 -95 71 -11 8
-82 60 -157 116 -74 55 -193 140 -265 189 -71 48 -145 101 -164 116 -19 16
-40 29 -46 29 -7 0 -14 3 -16 8 -4 10 -156 122 -165 122 -4 0 -19 16 -33 36
-13 20 -37 41 -52 46 -15 6 -28 14 -28 19 0 5 -7 9 -15 9 -22 0 -155 134 -155
156 0 11 -9 27 -20 37 -11 9 -20 26 -20 36 0 11 -4 22 -8 25 -5 3 -17 33 -26
68 -40 141 -99 325 -112 350 -8 14 -14 32 -14 40 0 7 -26 94 -59 193 -32 99
-75 234 -95 300 -20 66 -70 221 -111 345 -40 124 -77 243 -81 265 -4 22 -19
69 -34 105 -30 74 -63 181 -79 258 -6 29 -17 65 -25 80 -8 16 -22 56 -31 91
-9 35 -20 70 -25 79 -14 27 -70 211 -70 232 0 10 -4 21 -9 25 -5 3 -13 20 -17
37 -3 18 -10 39 -14 48 -11 21 -31 82 -80 245 -23 77 -59 194 -80 260 -22 66
-49 158 -61 205 -12 47 -28 97 -35 113 -20 37 -54 147 -54 173 0 11 -9 39 -20
61 -11 23 -24 63 -30 89 -6 27 -17 68 -25 90 -20 58 -30 190 -18 217 6 12 19
51 28 87 10 36 28 97 40 135 21 62 65 209 127 420 26 91 73 242 103 330 13 39
36 111 50 160 15 50 53 173 85 275 32 102 66 212 75 245 9 33 20 69 25 80 4
11 25 74 45 140 20 66 50 161 66 210 15 50 31 104 33 120 7 39 127 416 210
660 36 105 69 204 75 220 5 17 22 80 37 140 14 61 33 117 41 126 7 9 15 32 17
52 4 37 50 190 68 221 11 20 34 97 68 226 18 66 26 81 72 124 29 27 68 60 88
75 19 14 62 47 95 73 33 26 91 71 130 99 38 29 76 58 85 65 8 8 78 61 155 118
77 58 154 116 170 130 17 13 71 54 120 90 136 98 180 130 185 136 6 7 150 117
190 145 125 88 403 296 570 426 14 10 44 31 67 46 64 43 238 175 241 185 2 4
8 8 14 8 13 0 92 55 122 85 14 14 51 44 84 67 32 24 103 77 156 118 54 41 117
88 140 104 85 60 498 367 506 375 11 13 98 80 161 124 l65 46 140 5 c76 3 274
8 439 12 165 3 302 8 304 9 7 7 648 4 709 -4z m-1573 -1841 c-3 -5 -16 -10
-28 -9 -21 0 -21 1 -2 9 28 12 37 12 30 0z m68 3 c-7 -2 -19 -2 -25 0 -7 3 -2
5 12 5 14 0 19 -2 13 -5z m3050 -2000 c4 -5 9 -32 11 -59 3 -27 15 -81 27
-119 17 -55 22 -91 20 -170 -2 -93 -16 -234 -25 -243 -4 -3 -11 36 -21 123 -4
28 -15 102 -26 165 -12 63 -27 153 -35 200 -8 47 -17 96 -20 110 -3 14 4 64
16 110 12 47 25 96 29 110 3 14 8 -29 12 -96 3 -66 8 -125 12 -131z m4692
-6300 c-15 -48 -35 -110 -45 -138 -10 -27 -25 -77 -34 -110 -33 -116 -56 -158
-104 -195 -25 -19 -64 -52 -87 -72 -23 -21 -45 -38 -49 -38 -3 0 -15 -9 -26
-20 -11 -11 -27 -20 -35 -20 -8 0 -15 -5 -15 -11 0 -12 -12 -24 -60 -60 -19
-15 -48 -38 -63 -53 -15 -14 -31 -26 -35 -26 -4 0 -34 -25 -67 -55 -33 -30
-62 -55 -66 -55 -3 0 -17 -10 -31 -22 -33 -29 -114 -89 -213 -156 -22 -15 -69
-50 -105 -77 -97 -76 -166 -116 -109 -62 46 42 180 229 225 312 15 28 30 52
34 55 4 3 10 18 14 34 8 31 217 245 372 380 43 38 133 124 200 190 142 143
315 298 322 291 2 -2 -8 -43 -23 -92z"/>
<path d="M10500 13050 c0 -5 5 -10 11 -10 5 0 7 5 4 10 -3 6 -8 10 -11 10 -2
0 -4 -4 -4 -10z"/>
<path d="M1920 11396 c0 -9 7 -16 16 -16 9 0 14 5 12 12 -6 18 -28 21 -28 4z"/>
<path d="M1910 11295 c0 -8 7 -15 15 -15 8 0 15 7 15 15 0 8 -7 15 -15 15 -8
0 -15 -7 -15 -15z"/>
<path d="M3420 9235 c0 -8 5 -15 10 -15 6 0 10 7 10 15 0 8 -4 15 -10 15 -5 0
-10 -7 -10 -15z"/>
<path d="M4080 4665 c0 -16 27 -32 37 -21 7 7 -16 36 -28 36 -5 0 -9 -7 -9
-15z"/>
<path d="M7645 15319 c-93 -10 -270 -84 -283 -118 -3 -9 -17 -29 -30 -46 -48
-58 -126 -269 -137 -370 -2 -16 -8 -68 -14 -115 -27 -217 -3 -370 57 -358 15
3 17 24 18 168 2 169 9 252 25 282 5 9 9 30 9 47 0 43 46 182 73 222 13 19 26
42 30 51 8 22 78 73 137 100 25 11 85 26 134 33 79 11 97 10 159 -5 71 -18 77
-22 144 -106 25 -32 76 -190 92 -284 6 -36 14 -78 17 -95 4 -16 9 -88 11 -160
3 -98 1 -134 -9 -148 -16 -22 -107 -37 -184 -31 -46 3 -59 1 -70 -14 -17 -22
-18 -47 -1 -60 25 -21 139 -29 220 -14 73 13 80 17 102 51 53 82 25 390 -62
696 -19 65 -56 127 -107 178 -49 48 -57 53 -122 75 -71 24 -128 30 -209 21z"/>
<path d="M5244 14966 c-8 -22 3 -33 18 -18 9 9 9 15 0 24 -9 9 -13 7 -18 -6z"/>
<path d="M9075 14498 c-38 -4 -88 -10 -109 -11 -22 -2 -42 -9 -44 -15 -2 -7
-10 -12 -19 -12 -29 0 -73 -42 -120 -113 -44 -67 -88 -157 -76 -157 3 0 1 -6
-5 -12 -16 -20 -43 -124 -61 -233 -15 -88 -15 -110 -3 -190 9 -56 20 -97 31
-108 9 -9 56 -27 103 -39 74 -18 91 -19 117 -8 23 9 31 19 31 36 0 29 -31 43
-103 50 -56 4 -95 27 -103 60 -6 24 -1 130 10 192 17 105 27 145 55 216 17 44
42 97 56 118 31 46 100 98 131 98 13 0 25 4 28 9 10 15 179 23 232 10 80 -19
157 -87 175 -153 5 -17 26 -83 47 -146 55 -161 76 -254 77 -332 1 -50 6 -72
20 -88 72 -80 82 76 20 315 -27 101 -93 295 -118 340 -20 40 -90 104 -152 142
-58 35 -115 43 -220 31z"/>
<path d="M7405 14377 c-43 -14 -66 -47 -56 -83 7 -26 12 -29 47 -28 56 2 134
33 134 53 -1 26 -25 51 -52 51 -13 0 -28 4 -33 8 -6 4 -24 4 -40 -1z"/>
<path d="M6425 14323 c-5 -5 -30 -15 -54 -22 -78 -22 -135 -69 -195 -159 -31
-46 -61 -102 -67 -125 -6 -23 -21 -55 -33 -72 -47 -64 -116 -311 -122 -442 -4
-85 -3 -93 19 -119 39 -45 54 -29 60 68 10 181 43 300 138 492 52 107 82 155
123 199 30 31 62 57 70 57 9 0 27 7 39 15 30 19 162 32 171 16 4 -6 16 -11 27
-11 63 0 163 -97 192 -185 39 -124 50 -180 51 -267 1 -131 -8 -298 -16 -298
-4 0 -10 -16 -14 -36 -9 -49 5 -61 56 -45 l40 12 1 87 c7 377 7 364 -16 457
-13 50 -31 110 -41 135 -40 102 -143 203 -234 231 -48 15 -183 23 -195 12z"/>
<path d="M9227 13683 c-4 -3 -24 -9 -44 -12 -32 -5 -39 -11 -41 -33 -4 -33 21
-43 86 -33 54 8 72 20 72 46 0 25 -56 49 -73 32z"/>
<path d="M6565 13467 c-7 -10 -10 -27 -8 -38 5 -19 13 -20 92 -17 78 3 86 5
89 24 5 34 -24 49 -96 49 -51 0 -67 -4 -77 -18z"/>
<path d="M6270 13450 c-63 -8 -90 -18 -90 -33 0 -5 -9 -2 -19 7 -16 14 -23 15
-41 6 -33 -17 -21 -46 17 -43 18 2 35 -2 38 -7 9 -14 140 -12 196 3 62 16 82
33 68 58 -11 21 -57 23 -169 9z"/>
<path d="M7960 13372 c0 -9 9 -23 20 -29 17 -11 21 -10 31 8 9 17 8 23 -2 30
-23 15 -49 10 -49 -9z"/>
<path d="M7490 13357 c0 -20 38 -51 64 -52 13 -1 36 -7 52 -13 16 -6 72 -16
124 -22 152 -18 145 -18 145 9 0 28 18 22 -245 70 -135 25 -140 25 -140 8z"/>
<path d="M7274 13266 c-10 -25 0 -48 29 -70 22 -16 48 -22 128 -26 102 -5 129
0 129 25 0 23 -34 35 -98 35 -58 0 -124 19 -137 40 -9 15 -45 12 -51 -4z"/>
<path d="M9211 13206 c-11 -13 -11 -19 -1 -31 7 -8 19 -15 27 -15 25 0 221
-81 244 -101 17 -14 25 -16 36 -8 40 34 -4 68 -177 139 -75 31 -113 36 -129
16z"/>
<path d="M8771 13137 c-17 -22 -6 -39 46 -71 48 -29 127 -45 137 -27 10 15
-21 39 -64 51 -22 6 -40 14 -40 19 0 4 -12 14 -27 22 -16 7 -31 15 -34 17 -3
1 -11 -4 -18 -11z"/>
<path d="M9047 13113 c-23 -23 11 -68 59 -77 121 -23 204 -14 204 23 0 24 -24
32 -82 31 -56 -2 -137 10 -144 21 -6 11 -28 12 -37 2z"/>
<path d="M6455 12903 c-76 -6 -105 -14 -105 -29 0 -23 36 -31 180 -37 74 -3
147 -10 162 -15 14 -6 48 -12 75 -14 45 -3 48 -1 48 21 0 21 -9 27 -70 46 -68
21 -204 34 -290 28z"/>
<path d="M6415 12769 c-4 -6 1 -19 11 -29 15 -15 38 -20 119 -22 l100 -3 0 29
0 29 -112 4 c-76 2 -114 0 -118 -8z"/>
<path d="M6068 12743 c-10 -2 -18 -8 -18 -12 0 -24 41 -39 121 -45 68 -5 88
-4 98 7 14 17 2 29 -48 46 -33 11 -118 13 -153 4z"/>
<path d="M5313 11724 c-9 -23 15 -39 82 -57 115 -30 149 -23 103 20 -18 17
-139 53 -176 53 -1 0 -5 -7 -9 -16z"/>
<path d="M8015 11660 c-22 -3 -106 -5 -187 -3 l-146 2 -31 -35 c-30 -34 -42
-84 -20 -84 5 0 24 13 42 30 18 16 37 30 42 31 6 0 82 1 170 2 163 2 210 12
199 41 -8 20 -22 23 -69 16z"/>
<path d="M9008 11663 c-64 -4 -88 -22 -62 -44 13 -11 52 -13 173 -11 184 3
322 -12 405 -45 74 -29 76 -29 76 2 0 35 -55 58 -215 91 -38 8 -302 13 -377 7z"/>
<path d="M5016 11637 c-25 -19 -12 -37 27 -37 18 -1 50 -7 72 -16 57 -20 117
-29 215 -29 79 0 85 1 88 21 4 27 -25 59 -42 45 -13 -10 -83 -7 -181 9 -130
21 -159 22 -179 7z"/>
<path d="M7267 11473 c-12 -11 -8 -51 6 -60 6 -4 39 -11 72 -14 33 -4 85 -14
115 -23 30 -9 96 -22 147 -28 76 -10 97 -9 117 2 52 27 19 56 -74 65 -76 7
-188 24 -231 36 -20 5 -50 9 -67 9 -17 0 -34 5 -37 10 -7 11 -38 13 -48 3z"/>
<path d="M9374 11379 c-11 -18 11 -30 68 -36 47 -5 56 -3 62 12 4 11 1 22 -6
27 -19 12 -116 10 -124 -3z"/>
<path d="M8650 11276 c0 -39 119 -121 142 -98 21 21 1 47 -61 79 -71 37 -81
39 -81 19z"/>
<path d="M7930 11226 c0 -15 7 -27 18 -30 32 -10 101 -4 119 10 17 13 17 15
-1 29 -13 9 -42 15 -78 15 -55 0 -58 -1 -58 -24z"/>
<path d="M9736 11241 c-8 -13 20 -112 35 -122 34 -20 38 25 9 89 -18 40 -33
52 -44 33z"/>
<path d="M9313 11124 c-8 -22 9 -35 53 -41 57 -7 124 13 124 37 0 18 -7 20
-85 20 -69 0 -87 -3 -92 -16z"/>
<path d="M6565 11120 c-3 -5 30 -45 75 -88 62 -62 87 -95 110 -148 49 -109 55
-119 70 -119 11 0 14 10 12 34 -1 19 -6 39 -11 45 -5 6 -12 29 -15 51 -20 110
-205 283 -241 225z"/>
<path d="M7270 11086 c0 -40 16 -70 59 -112 94 -90 104 -96 115 -69 4 11 -16
37 -58 79 -35 34 -67 73 -71 87 -13 42 -45 53 -45 15z"/>
<path d="M7577 11059 c-9 -6 -17 -17 -17 -25 0 -20 37 -33 102 -35 29 -1 62
-6 72 -12 11 -5 58 -11 105 -13 100 -4 164 12 169 44 4 25 -16 32 -59 23 -41
-8 -179 -6 -217 4 -15 4 -49 9 -75 11 -26 2 -51 5 -55 8 -4 2 -15 0 -25 -5z"/>
<path d="M5925 10933 c-4 -10 -11 -67 -15 -128 -8 -106 0 -186 21 -209 5 -6 9
-16 9 -23 0 -32 65 -104 133 -146 23 -15 28 -16 33 -3 10 25 0 51 -21 54 -34
6 -64 42 -102 121 -35 73 -36 77 -29 161 3 47 9 109 12 138 6 48 5 52 -14 52
-11 0 -23 -8 -27 -17z"/>
<path d="M15299 10928 c-12 -22 -6 -48 11 -48 6 0 14 8 17 18 4 9 14 22 22 29
17 14 17 14 -17 18 -14 1 -27 -5 -33 -17z"/>
<path d="M6221 10929 c-19 -8 -21 -12 -11 -24 15 -18 42 -19 58 -3 8 8 9 15 1
25 -13 15 -16 15 -48 2z"/>
<path d="M8775 10910 c-4 -6 -4 -23 0 -39 5 -22 13 -30 38 -35 90 -19 523 -27
647 -12 108 12 138 32 111 75 -7 10 -16 11 -42 3 -36 -11 -254 -32 -349 -33
-137 -2 -315 17 -347 37 -26 17 -49 18 -58 4z"/>
<path d="M6413 10723 c-20 -7 -15 -31 10 -47 12 -8 56 -17 97 -20 41 -4 92 -9
112 -12 29 -4 39 -2 47 14 19 36 -7 53 -85 58 -38 2 -91 6 -119 8 -27 2 -56 2
-62 -1z"/>
<path d="M6224 10548 c-9 -14 9 -37 39 -48 18 -6 103 -15 189 -20 86 -4 161
-11 166 -14 14 -9 42 22 36 39 -8 20 -30 26 -129 31 -49 2 -115 8 -145 11 -74
9 -151 9 -156 1z"/>
<path d="M5173 10483 c-19 -7 -16 -41 5 -47 9 -3 43 -10 75 -15 35 -6 83 -25
118 -46 58 -36 79 -38 79 -10 0 17 -99 83 -150 100 -44 15 -111 25 -127 18z"/>
<path d="M4792 10368 c-27 -56 -34 -80 -49 -163 -2 -11 -6 -52 -9 -91 -5 -62
-3 -72 12 -78 10 -4 21 -1 25 6 5 8 16 2 37 -20 17 -18 37 -32 46 -32 9 0 40
-12 69 -27 48 -25 61 -27 169 -28 119 0 144 7 133 37 -5 12 -24 16 -88 16
-103 2 -177 17 -248 50 -105 50 -123 132 -63 289 31 84 33 96 13 101 -11 2
-25 -16 -47 -60z"/>
<path d="M7852 10303 c4 -39 28 -42 28 -4 0 21 -5 31 -16 31 -11 0 -14 -8 -12
-27z"/>
<path d="M9122 10228 c2 -13 10 -23 18 -23 8 0 16 10 18 23 3 17 -2 22 -18 22
-16 0 -21 -5 -18 -22z"/>
<path d="M5087 10173 c-4 -3 -7 -17 -7 -29 0 -29 17 -34 132 -39 51 -3 104 -6
118 -7 19 -2 25 2 25 17 0 29 -38 42 -140 50 -49 3 -97 8 -106 11 -8 2 -18 1
-22 -3z"/>
<path d="M9500 8535 c-10 -12 -11 -44 -5 -148 5 -73 9 -154 10 -182 1 -27 3
-57 4 -66 0 -8 17 -23 37 -33 31 -14 44 -15 91 -6 64 14 99 42 84 68 -8 13
-24 17 -72 17 l-63 0 -9 35 c-5 19 -12 100 -15 180 -7 137 -8 145 -28 148 -11
2 -27 -4 -34 -13z"/>
<path d="M7802 8368 c-7 -7 -12 -20 -12 -30 0 -25 32 -152 39 -158 7 -6 81
-129 81 -135 0 -2 15 -21 34 -41 30 -32 37 -36 50 -25 9 8 16 19 16 27 0 15
-45 100 -65 124 -28 32 -85 160 -85 188 0 28 -21 62 -39 62 -4 0 -12 -5 -19
-12z"/>
<path d="M9046 8074 c-12 -31 -5 -54 36 -131 22 -43 50 -95 60 -115 34 -69 63
-35 30 35 -11 23 -32 78 -47 122 -16 44 -33 86 -38 93 -13 17 -34 15 -41 -4z"/>
<path d="M6348 8038 c-28 -23 -26 -42 12 -103 24 -39 44 -61 58 -63 30 -4 28
16 -5 92 -34 79 -44 90 -65 74z"/>
<path d="M6071 7903 c-17 -31 -31 -60 -31 -64 0 -4 -6 -20 -14 -36 -18 -36
-53 -153 -67 -222 -9 -45 -9 -56 4 -68 23 -23 45 -9 53 34 3 21 12 48 20 60 8
12 14 31 14 42 0 11 8 44 19 73 52 150 72 218 66 227 -14 23 -35 8 -64 -46z"/>
<path d="M7424 7945 c-7 -16 16 -118 38 -175 24 -62 33 -73 57 -65 11 3 21 11
21 16 0 5 -18 49 -40 98 -22 49 -40 100 -40 115 0 29 -26 37 -36 11z"/>
<path d="M4866 7758 c-9 -29 -26 -133 -26 -158 0 -15 -11 -63 -25 -106 -26
-83 -32 -133 -15 -135 6 -1 15 -2 21 -3 11 -1 49 94 76 189 7 28 15 88 16 135
2 81 1 85 -21 88 -12 2 -24 -3 -26 -10z"/>
<path d="M7874 7638 c-61 -70 -161 -250 -170 -306 -14 -88 50 -116 71 -31 11
40 70 165 85 179 22 20 80 114 80 129 0 53 -32 67 -66 29z"/>
<path d="M9555 7649 c-33 -16 -74 -91 -91 -165 -9 -38 -27 -101 -41 -141 -29
-85 -28 -127 4 -131 14 -2 26 4 33 17 6 12 9 21 6 21 -5 0 12 51 68 202 13 38
36 89 51 114 18 31 25 53 21 70 -7 26 -19 29 -51 13z"/>
<path d="M6452 7633 c-4 -10 -7 -45 -6 -78 2 -64 -10 -156 -26 -190 -5 -11
-15 -40 -21 -65 -7 -25 -14 -52 -17 -60 -19 -68 -11 -170 14 -170 14 0 35 39
28 52 -6 10 21 113 51 197 31 89 35 112 35 213 1 77 -13 118 -37 118 -7 0 -16
-8 -21 -17z"/>
<path d="M7890 6968 c-34 -94 -73 -346 -95 -608 -8 -100 -13 -150 -26 -240 -5
-41 -12 -102 -15 -135 -2 -33 -7 -67 -9 -75 -3 -8 -9 -64 -15 -125 -6 -60 -12
-126 -14 -145 -3 -19 -10 -93 -16 -165 -6 -71 -18 -184 -25 -250 -8 -66 -17
-155 -20 -199 -3 -43 -7 -82 -10 -86 -3 -5 -10 -65 -15 -135 -5 -69 -14 -153
-20 -188 -18 -107 -50 -434 -50 -507 0 -39 4 -70 9 -70 12 0 24 37 17 48 -5 8
2 72 24 212 6 36 17 128 25 205 15 146 37 320 54 440 6 39 13 102 16 140 3 39
12 129 21 200 15 130 53 483 59 540 1 17 8 68 14 115 7 47 14 110 17 140 2 30
9 84 14 120 5 36 16 135 25 220 28 274 37 332 67 433 33 110 33 141 2 145 -17
2 -24 -5 -34 -30z"/>
<path d="M4877 6882 c-7 -33 16 -101 66 -201 20 -41 40 -93 43 -115 4 -23 13
-51 20 -63 8 -12 14 -31 14 -41 0 -52 50 -126 71 -105 21 21 -48 284 -108 410
-23 50 -43 98 -43 107 0 15 -28 36 -48 36 -5 0 -12 -12 -15 -28z"/>
<path d="M9372 6898 c-7 -7 -12 -22 -12 -35 0 -13 -9 -65 -21 -116 -11 -50
-22 -99 -24 -108 -2 -9 -13 -86 -25 -170 -12 -84 -28 -182 -36 -218 -20 -84
-48 -228 -79 -408 -13 -78 -33 -179 -44 -225 -21 -91 -54 -249 -76 -374 -35
-200 -76 -409 -136 -704 -11 -52 -22 -111 -25 -130 -3 -19 -16 -84 -29 -145
-40 -180 -60 -405 -35 -405 6 0 10 25 10 56 0 31 4 84 10 118 19 115 29 171
39 211 14 57 41 181 51 240 5 28 21 104 35 170 14 66 27 145 29 175 1 30 8 71
14 90 12 39 38 158 46 205 2 17 18 91 35 165 17 74 37 171 45 215 7 44 23 118
34 165 12 47 42 186 66 310 25 124 54 268 66 320 11 52 22 109 25 125 34 195
48 263 70 335 29 99 31 135 9 144 -22 8 -28 8 -42 -6z"/>
<path d="M7408 6668 c-9 -16 -13 -79 -14 -213 -2 -104 -5 -271 -8 -370 -3 -99
-6 -541 -6 -982 0 -718 5 -886 23 -833 5 15 13 458 21 1225 5 455 12 705 25
900 10 153 3 286 -16 292 -6 2 -17 -6 -25 -19z"/>
<path d="M6442 6518 c-6 -8 -9 -48 -7 -103 6 -128 24 -424 29 -465 6 -44 13
-130 26 -285 26 -323 40 -493 45 -525 2 -19 7 -71 10 -115 9 -136 16 -207 25
-275 5 -36 8 -72 7 -80 -4 -30 14 -120 24 -120 9 0 4 206 -7 275 -2 17 -7 75
-10 130 -2 55 -9 136 -14 180 -5 44 -12 147 -16 229 -3 82 -8 159 -10 170 -20
100 -40 396 -50 724 -4 111 -9 216 -13 234 -7 35 -22 45 -39 26z"/>
<path d="M4965 6451 c-3 -5 -1 -12 5 -16 5 -3 10 1 10 9 0 18 -6 21 -15 7z"/>
<path d="M5077 6093 c-12 -11 -8 -66 13 -153 10 -47 31 -143 45 -215 15 -71
34 -159 42 -195 21 -91 43 -203 94 -480 4 -25 15 -79 23 -120 9 -41 20 -100
26 -130 6 -30 16 -75 21 -100 6 -25 12 -54 14 -65 2 -11 14 -72 28 -135 28
-129 52 -248 73 -360 7 -41 23 -118 34 -170 11 -52 23 -111 26 -130 8 -44 35
-110 46 -110 9 0 8 4 -16 110 -9 36 -20 97 -26 135 -11 69 -26 150 -55 295 -8
41 -24 127 -35 190 -12 63 -27 147 -35 185 -8 39 -35 178 -60 310 -25 132 -50
260 -55 285 -5 25 -19 104 -30 175 -11 72 -28 166 -37 210 -8 44 -17 94 -18
110 -2 17 -9 62 -16 100 -6 39 -13 102 -14 140 -2 80 -23 125 -59 125 -13 0
-26 -3 -29 -7z"/>
<path d="M13774 5785 c-10 -25 2 -41 58 -74 29 -18 68 -43 87 -57 58 -41 109
-45 85 -6 -18 28 -185 152 -206 152 -10 0 -21 -7 -24 -15z"/>
<path d="M10730 3619 c0 -5 5 -7 10 -4 6 3 10 8 10 11 0 2 -4 4 -10 4 -5 0
-10 -5 -10 -11z"/>
<path d="M10648 1905 c-12 -27 2 -55 28 -55 26 0 106 -65 133 -110 27 -44 61
-140 80 -231 18 -83 24 -260 12 -324 -24 -116 -78 -242 -140 -324 -23 -30 -41
-58 -41 -63 0 -4 -6 -8 -13 -8 -7 0 -19 21 -25 48 -7 26 -27 75 -44 109 l-31
61 32 34 c17 18 31 39 31 46 0 22 15 12 34 -22 28 -53 57 -75 83 -66 29 12 20
43 -29 99 -42 49 -43 55 -11 151 23 67 13 183 -22 251 -34 69 -90 144 -125
169 -84 60 -148 -28 -120 -167 11 -57 103 -261 141 -314 26 -37 24 -45 -15
-87 -29 -30 -37 -34 -50 -23 -29 24 -58 81 -72 143 -16 69 -28 88 -54 88 -35
0 -39 -55 -10 -130 17 -44 19 -58 9 -93 -19 -73 -83 -123 -136 -108 -48 14
-72 33 -107 86 -121 184 -63 495 92 495 17 0 38 -7 46 -16 21 -20 20 -79 -1
-114 -13 -23 -25 -30 -57 -32 -33 -2 -42 -7 -44 -25 -7 -49 80 -61 128 -18 59
54 65 185 10 239 -27 28 -36 31 -91 29 -81 -2 -120 -28 -158 -108 -16 -33 -32
-73 -36 -90 -10 -46 -7 -200 6 -253 14 -57 58 -149 94 -196 48 -64 142 -85
205 -48 30 19 80 81 93 116 7 18 8 18 27 1 25 -23 25 -31 -3 -69 -47 -64 -76
-161 -69 -231 4 -44 35 -102 65 -124 19 -13 18 -15 -14 -43 -19 -17 -71 -55
-117 -85 -46 -30 -81 -57 -78 -60 2 -3 40 14 83 37 160 87 228 120 244 120 19
0 69 54 69 73 0 7 18 28 40 47 78 67 178 223 215 334 53 158 43 397 -25 623
-27 88 -42 114 -107 181 -82 83 -134 102 -155 57z m-25 -338 c53 -61 73 -109
81 -192 7 -62 -16 -171 -33 -160 -11 6 -107 200 -126 255 -8 23 -15 57 -15 74
0 31 23 76 40 76 5 0 29 -24 53 -53z m-24 -665 c36 -71 54 -137 47 -167 -3
-12 -25 -38 -49 -58 l-44 -36 -36 30 c-34 28 -37 35 -37 82 0 56 34 153 65
187 10 11 20 20 21 20 2 0 17 -26 33 -58z"/>
<path d="M1052 103 c4 -21 33 -25 33 -3 0 8 -8 16 -18 18 -14 3 -18 -1 -15
-15z"/>
</g>
</svg>
